<svg width="35" height="35" viewBox="0 0 35 35" fill="none" xmlns="http://www.w3.org/2000/svg">
<g id="vuesax/linear/call-calling">
<g id="call-calling">
<g id="call-calling_2">
<path id="Vector" d="M32.0394 26.7306C32.0394 27.2556 31.9228 27.7952 31.6748 28.3202C31.4269 28.8452 31.1061 29.341 30.6832 29.8077C29.9686 30.5952 29.1811 31.1639 28.2915 31.5285C27.4165 31.8931 26.4686 32.0827 25.4478 32.0827C23.9603 32.0827 22.3707 31.7327 20.6936 31.0181C19.0165 30.3035 17.3394 29.341 15.6769 28.1306C13.9998 26.9056 12.4103 25.5493 10.8936 24.0473C9.3915 22.5306 8.03525 20.941 6.82484 19.2785C5.629 17.616 4.6665 15.9535 3.9665 14.3056C3.2665 12.6431 2.9165 11.0535 2.9165 9.53685C2.9165 8.54518 3.0915 7.59727 3.4415 6.72227C3.7915 5.83268 4.34567 5.01602 5.11859 4.28685C6.05192 3.3681 7.07275 2.91602 8.15192 2.91602C8.56025 2.91602 8.96859 3.00352 9.33317 3.17852C9.71234 3.35352 10.0478 3.61602 10.3103 3.99518L13.6936 8.76393C13.9561 9.12852 14.1457 9.46393 14.2769 9.78477C14.4082 10.091 14.4811 10.3973 14.4811 10.6743C14.4811 11.0243 14.379 11.3743 14.1748 11.7098C13.9853 12.0452 13.7082 12.3952 13.3582 12.7452L12.2498 13.8973C12.0894 14.0577 12.0165 14.2473 12.0165 14.4806C12.0165 14.5973 12.0311 14.6993 12.0603 14.816C12.104 14.9327 12.1478 15.0202 12.1769 15.1077C12.4394 15.5889 12.8915 16.216 13.5332 16.9743C14.1894 17.7327 14.8894 18.5056 15.6478 19.2785C16.4353 20.0514 17.1936 20.766 17.9665 21.4223C18.7248 22.0639 19.3519 22.5014 19.8478 22.7639C19.9207 22.7931 20.0082 22.8368 20.1103 22.8806C20.2269 22.9243 20.3436 22.9389 20.4748 22.9389C20.7228 22.9389 20.9123 22.8514 21.0728 22.691L22.1811 21.5973C22.5457 21.2327 22.8957 20.9556 23.2311 20.7806C23.5665 20.5764 23.9019 20.4743 24.2665 20.4743C24.5436 20.4743 24.8353 20.5327 25.1561 20.6639C25.4769 20.7952 25.8123 20.9848 26.1769 21.2327L31.004 24.6598C31.3832 24.9223 31.6457 25.2285 31.8061 25.5931C31.9519 25.9577 32.0394 26.3223 32.0394 26.7306Z" stroke="#161616" stroke-width="3" stroke-miterlimit="10"/>
<path id="Vector_2" d="M26.9792 13.1237C26.9792 12.2487 26.2937 10.907 25.2729 9.81328C24.3396 8.80703 23.1 8.01953 21.875 8.01953" stroke="#161616" stroke-width="3" stroke-linecap="round" stroke-linejoin="round"/>
<path id="Vector_3" d="M32.0833 13.1243C32.0833 7.4806 27.5187 2.91602 21.875 2.91602" stroke="#161616" stroke-width="3" stroke-linecap="round" stroke-linejoin="round"/>
</g>
</g>
</g>
</svg>
