<svg width="92" height="28" viewBox="0 0 92 28" fill="none" xmlns="http://www.w3.org/2000/svg">
<path id="Vector 1" d="M1.14776 22.1461C0.883951 22.0645 0.603938 22.2122 0.522332 22.476C0.440726 22.7398 0.588431 23.0198 0.85224 23.1014L1.14776 22.1461ZM30.3661 27V27.5H30.4102L30.4537 27.4923L30.3661 27ZM68.14 16.4455L68.3117 16.9151L68.3692 16.8941L68.4199 16.8598L68.14 16.4455ZM47.7285 23.9109L47.8161 24.4032L47.8592 24.3955L47.9003 24.3805L47.7285 23.9109ZM15.1472 27L14.9994 27.4777L15.0716 27.5H15.1472V27ZM4.06751 24.096C4.33131 24.1776 4.61133 24.0299 4.69293 23.7661C4.77454 23.5023 4.62683 23.2223 4.36303 23.1407L4.06751 24.096ZM12.0797 25.5277C11.8159 25.4461 11.5358 25.5938 11.4542 25.8576C11.3726 26.1215 11.5203 26.4015 11.7841 26.4831L12.0797 25.5277ZM18.606 27.5C18.8822 27.5 19.106 27.2761 19.106 27C19.106 26.7239 18.8822 26.5 18.606 26.5V27.5ZM26.9073 26.5C26.6311 26.5 26.4073 26.7239 26.4073 27C26.4073 27.2761 26.6311 27.5 26.9073 27.5V26.5ZM34.3997 26.7902C34.6716 26.7418 34.8528 26.4822 34.8044 26.2103C34.756 25.9385 34.4964 25.7573 34.2245 25.8057L34.3997 26.7902ZM43.695 24.1207C43.4231 24.1691 43.2419 24.4287 43.2903 24.7005C43.3386 24.9724 43.5982 25.1536 43.8701 25.1052L43.695 24.1207ZM52.5393 22.6838C52.7986 22.5889 52.9319 22.3018 52.8371 22.0425C52.7422 21.7831 52.4551 21.6498 52.1958 21.7446L52.5393 22.6838ZM63.3293 17.6726C63.07 17.7675 62.9366 18.0546 63.0315 18.314C63.1263 18.5733 63.4134 18.7066 63.6728 18.6118L63.3293 17.6726ZM73.6154 13.3495C73.8442 13.1949 73.9044 12.8841 73.7498 12.6553C73.5952 12.4265 73.2843 12.3663 73.0555 12.5209L73.6154 13.3495ZM85.5246 4.09605C85.2958 4.25065 85.2356 4.56146 85.3903 4.79028C85.5448 5.01909 85.8557 5.07925 86.0845 4.92465L85.5246 4.09605ZM0.85224 23.1014L4.06751 24.096L4.36303 23.1407L1.14776 22.1461L0.85224 23.1014ZM11.7841 26.4831L14.9994 27.4777L15.2949 26.5223L12.0797 25.5277L11.7841 26.4831ZM15.1472 27.5H18.606V26.5H15.1472V27.5ZM26.9073 27.5H30.3661V26.5H26.9073V27.5ZM30.4537 27.4923L34.3997 26.7902L34.2245 25.8057L30.2785 26.5077L30.4537 27.4923ZM43.8701 25.1052L47.8161 24.4032L47.641 23.4186L43.695 24.1207L43.8701 25.1052ZM47.9003 24.3805L52.5393 22.6838L52.1958 21.7446L47.5568 23.4413L47.9003 24.3805ZM63.6728 18.6118L68.3117 16.9151L67.9683 15.976L63.3293 17.6726L63.6728 18.6118ZM68.4199 16.8598L73.6154 13.3495L73.0555 12.5209L67.8601 16.0312L68.4199 16.8598ZM86.0845 4.92465L91.2799 1.4143L90.7201 0.585702L85.5246 4.09605L86.0845 4.92465Z" fill="#858585"/>
</svg>
