<svg width="32" height="32" viewBox="0 0 32 32" fill="none" xmlns="http://www.w3.org/2000/svg">
<g id="fluent:building-people-16-filled" clip-path="url(#clip0_1_15183)">
<path id="Vector" d="M6.32178 7.28994C6.32178 6.51996 6.62765 5.78151 7.17211 5.23705C7.71657 4.69259 8.45502 4.38672 9.225 4.38672H16.9669C17.7369 4.38672 18.4754 4.69259 19.0198 5.23705C19.5643 5.78151 19.8702 6.51996 19.8702 7.28994V14.0854C18.8072 13.9884 17.7395 14.2132 16.8059 14.7307C15.8724 15.2482 15.1159 16.0345 14.6349 16.9873C14.1539 17.9402 13.9704 19.0157 14.1085 20.0742C14.2465 21.1327 14.6996 22.1252 15.4089 22.9228C14.4021 23.2001 13.5241 23.8207 12.9267 24.6771C12.3293 25.5336 12.0503 26.572 12.1379 27.6125H7.28952C7.03286 27.6125 6.78671 27.5106 6.60522 27.3291C6.42374 27.1476 6.32178 26.9014 6.32178 26.6448V7.28994ZM11.1605 10.1932C11.4171 10.1932 11.6633 10.0912 11.8448 9.90973C12.0263 9.72824 12.1282 9.48209 12.1282 9.22543C12.1282 8.96877 12.0263 8.72262 11.8448 8.54113C11.6633 8.35965 11.4171 8.25769 11.1605 8.25769C10.9038 8.25769 10.6577 8.35965 10.4762 8.54113C10.2947 8.72262 10.1927 8.96877 10.1927 9.22543C10.1927 9.48209 10.2947 9.72824 10.4762 9.90973C10.6577 10.0912 10.9038 10.1932 11.1605 10.1932ZM11.1605 15.0319C11.4171 15.0319 11.6633 14.9299 11.8448 14.7484C12.0263 14.5669 12.1282 14.3208 12.1282 14.0641C12.1282 13.8075 12.0263 13.5613 11.8448 13.3798C11.6633 13.1984 11.4171 13.0964 11.1605 13.0964C10.9038 13.0964 10.6577 13.1984 10.4762 13.3798C10.2947 13.5613 10.1927 13.8075 10.1927 14.0641C10.1927 14.3208 10.2947 14.5669 10.4762 14.7484C10.6577 14.9299 10.9038 15.0319 11.1605 15.0319ZM11.1605 19.8706C11.4171 19.8706 11.6633 19.7686 11.8448 19.5871C12.0263 19.4057 12.1282 19.1595 12.1282 18.9028C12.1282 18.6462 12.0263 18.4 11.8448 18.2186C11.6633 18.0371 11.4171 17.9351 11.1605 17.9351C10.9038 17.9351 10.6577 18.0371 10.4762 18.2186C10.2947 18.4 10.1927 18.6462 10.1927 18.9028C10.1927 19.1595 10.2947 19.4057 10.4762 19.5871C10.6577 19.7686 10.9038 19.8706 11.1605 19.8706ZM15.0315 10.1932C15.2881 10.1932 15.5343 10.0912 15.7158 9.90973C15.8972 9.72824 15.9992 9.48209 15.9992 9.22543C15.9992 8.96877 15.8972 8.72262 15.7158 8.54113C15.5343 8.35965 15.2881 8.25769 15.0315 8.25769C14.7748 8.25769 14.5286 8.35965 14.3472 8.54113C14.1657 8.72262 14.0637 8.96877 14.0637 9.22543C14.0637 9.48209 14.1657 9.72824 14.3472 9.90973C14.5286 10.0912 14.7748 10.1932 15.0315 10.1932ZM15.0315 15.0319C15.2881 15.0319 15.5343 14.9299 15.7158 14.7484C15.8972 14.5669 15.9992 14.3208 15.9992 14.0641C15.9992 13.8075 15.8972 13.5613 15.7158 13.3798C15.5343 13.1984 15.2881 13.0964 15.0315 13.0964C14.7748 13.0964 14.5286 13.1984 14.3472 13.3798C14.1657 13.5613 14.0637 13.8075 14.0637 14.0641C14.0637 14.3208 14.1657 14.5669 14.3472 14.7484C14.5286 14.9299 14.7748 15.0319 15.0315 15.0319ZM22.7734 19.3867C22.7734 20.285 22.4165 21.1466 21.7813 21.7818C21.1461 22.417 20.2846 22.7738 19.3863 22.7738C18.488 22.7738 17.6265 22.417 16.9913 21.7818C16.356 21.1466 15.9992 20.285 15.9992 19.3867C15.9992 18.4884 16.356 17.6269 16.9913 16.9917C17.6265 16.3565 18.488 15.9996 19.3863 15.9996C20.2846 15.9996 21.1461 16.3565 21.7813 16.9917C22.4165 17.6269 22.7734 18.4884 22.7734 19.3867ZM25.6766 27.2506C25.6766 29.3603 24.0179 31.4835 19.8702 31.4835C15.7224 31.4835 14.0637 29.3661 14.0637 27.2487C14.0637 25.8474 15.1786 24.7093 16.5527 24.7093H23.1876C24.5618 24.7093 25.6766 25.8474 25.6766 27.2506ZM26.5998 30.5158H26.6444C30.1011 30.5158 31.4831 28.6945 31.4831 26.8867C31.4831 25.6848 30.554 24.7093 29.4102 24.7093H26.8302C27.3256 25.4351 27.6121 26.3138 27.6121 27.2506C27.6121 28.377 27.2908 29.5209 26.5998 30.5158ZM29.5476 20.3545C29.5476 20.9961 29.2927 21.6115 28.839 22.0652C28.3853 22.5189 27.7699 22.7738 27.1282 22.7738C26.4866 22.7738 25.8712 22.5189 25.4175 22.0652C24.9638 21.6115 24.7089 20.9961 24.7089 20.3545C24.7089 19.7128 24.9638 19.0974 25.4175 18.6437C25.8712 18.19 26.4866 17.9351 27.1282 17.9351C27.7699 17.9351 28.3853 18.19 28.839 18.6437C29.2927 19.0974 29.5476 19.7128 29.5476 20.3545Z" fill="white"/>
</g>
<defs>
<clipPath id="clip0_1_15183">
<rect width="30.9677" height="30.9677" fill="white" transform="translate(0.515137 0.516602)"/>
</clipPath>
</defs>
</svg>
