<svg width="35" height="35" viewBox="0 0 35 35" fill="none" xmlns="http://www.w3.org/2000/svg">
<g id="Group 2760">
<path id="Vector" d="M31.5 14H28L19.6175 7.875C20.0401 7.57891 20.3859 7.18631 20.6264 6.72977C20.8668 6.27324 20.9949 5.76595 21 5.25C20.9915 4.63997 20.826 4.04242 20.5195 3.51492C20.2129 2.98742 19.7758 2.54774 19.25 2.23825V0H17.5V3.5C17.8461 3.5 18.1845 3.60264 18.4722 3.79493C18.76 3.98722 18.9843 4.26053 19.1168 4.5803C19.2492 4.90007 19.2839 5.25194 19.2164 5.59141C19.1488 5.93087 18.9822 6.24269 18.7374 6.48744C18.4927 6.73218 18.1809 6.89885 17.8414 6.96637C17.5019 7.0339 17.1501 6.99924 16.8303 6.86679C16.5105 6.73434 16.2372 6.51003 16.0449 6.22225C15.8526 5.93446 15.75 5.59612 15.75 5.25H14C14.0051 5.76709 14.1343 6.2754 14.3767 6.73218C14.6191 7.18897 14.9677 7.58089 15.393 7.875L7 14H3.5C2.57203 14.0009 1.68233 14.37 1.02615 15.0261C0.369973 15.6823 0.000926584 16.572 0 17.5V31.5C0.000926584 32.428 0.369973 33.3177 1.02615 33.9739C1.68233 34.63 2.57203 34.9991 3.5 35H31.5C31.9598 35.0007 32.4153 34.9106 32.8402 34.735C33.2652 34.5593 33.6513 34.3016 33.9764 33.9764C34.3016 33.6513 34.5593 33.2652 34.735 32.8402C34.9106 32.4153 35.0007 31.9598 35 31.5V17.5C34.9991 16.572 34.63 15.6823 33.9739 15.0261C33.3177 14.37 32.428 14.0009 31.5 14ZM17.5 8.75C17.5105 8.75 24.5 14 24.5 14H10.5L17.5 8.75ZM31.5 31.5H3.5V17.5H31.5V31.5Z" fill="#023D94"/>
<path id="Vector_2" d="M21 29.7495C21.4641 29.7495 21.9092 29.5651 22.2374 29.2369C22.5656 28.9088 22.75 28.4636 22.75 27.9995V20.9995C22.75 20.5354 22.5656 20.0903 22.2374 19.7621C21.9092 19.4339 21.4641 19.2495 21 19.2495C20.5359 19.2495 20.0908 19.4339 19.7626 19.7621C19.4344 20.0903 19.25 20.5354 19.25 20.9995V27.9995C19.25 28.4636 19.4344 28.9088 19.7626 29.2369C20.0908 29.5651 20.5359 29.7495 21 29.7495ZM28 29.7495C28.4641 29.7495 28.9092 29.5651 29.2374 29.2369C29.5656 28.9088 29.75 28.4636 29.75 27.9995V20.9995C29.75 20.5354 29.5656 20.0903 29.2374 19.7621C28.9092 19.4339 28.4641 19.2495 28 19.2495C27.5359 19.2495 27.0907 19.4339 26.7626 19.7621C26.4344 20.0903 26.25 20.5354 26.25 20.9995V27.9995C26.25 28.4636 26.4344 28.9088 26.7626 29.2369C27.0907 29.5651 27.5359 29.7495 28 29.7495ZM7 29.7495C7.46413 29.7495 7.90925 29.5651 8.23744 29.2369C8.56562 28.9088 8.75 28.4636 8.75 27.9995V20.9995C8.75 20.5354 8.56562 20.0903 8.23744 19.7621C7.90925 19.4339 7.46413 19.2495 7 19.2495C6.53587 19.2495 6.09075 19.4339 5.76256 19.7621C5.43437 20.0903 5.25 20.5354 5.25 20.9995V27.9995C5.25 28.4636 5.43437 28.9088 5.76256 29.2369C6.09075 29.5651 6.53587 29.7495 7 29.7495ZM14 29.7495C14.4641 29.7495 14.9092 29.5651 15.2374 29.2369C15.5656 28.9088 15.75 28.4636 15.75 27.9995V20.9995C15.75 20.5354 15.5656 20.0903 15.2374 19.7621C14.9092 19.4339 14.4641 19.2495 14 19.2495C13.5359 19.2495 13.0908 19.4339 12.7626 19.7621C12.4344 20.0903 12.25 20.5354 12.25 20.9995V27.9995C12.25 28.4636 12.4344 28.9088 12.7626 29.2369C13.0908 29.5651 13.5359 29.7495 14 29.7495Z" fill="#023D94"/>
</g>
</svg>
