<svg width="35" height="33" viewBox="0 0 35 33" fill="none" xmlns="http://www.w3.org/2000/svg">
<g id="Group 2761">
<path id="Vector" d="M12.3575 4.63405H20.7698C21.0318 4.63405 21.2895 4.70068 21.5186 4.82769C21.7478 4.95469 21.9408 5.13789 22.0797 5.36005L27.4181 13.9021H34.2271C34.3612 13.9021 34.493 13.9369 34.6096 14.0032C34.7262 14.0695 34.8235 14.1651 34.8919 14.2804C34.9603 14.3958 34.9976 14.527 34.9999 14.6611C35.0022 14.7952 34.9696 14.9276 34.9052 15.0452L28.8238 26.1932C27.4635 26.3755 26.0792 26.1914 24.8138 25.66C23.5484 25.1286 22.4478 24.2691 21.6256 23.1702C20.9068 24.1302 19.9741 24.9092 18.9015 25.4455C17.8289 25.9818 16.646 26.2606 15.4468 26.2596C14.2476 26.2606 13.0648 25.9818 11.9922 25.4455C10.9196 24.9092 9.98685 24.1302 9.2681 23.1702C8.46316 24.2457 7.39121 25.0923 6.15845 25.626C4.92568 26.1598 3.57486 26.3622 2.23979 26.2133L0.330562 15.7233C0.290057 15.5007 0.298961 15.2719 0.356645 15.0531C0.414329 14.8343 0.519385 14.6308 0.664381 14.4571C0.809378 14.2833 0.990775 14.1436 1.19574 14.0477C1.40071 13.9518 1.62424 13.9021 1.85053 13.9021H3.08937V6.17873C3.08937 5.76906 3.25211 5.37616 3.54179 5.08648C3.83148 4.79679 4.22437 4.63405 4.63405 4.63405H6.17873V0H12.3575V4.63405ZM6.17873 13.9021H23.7758L19.9141 7.72342H6.17873V13.9021ZM3.08937 29.349C5.36973 29.3521 7.57061 28.5114 9.2681 26.9887C10.9656 28.5114 13.1665 29.3521 15.4468 29.349C17.7272 29.3521 19.9281 28.5114 21.6256 26.9887C23.3231 28.5114 25.5239 29.3521 27.8043 29.349H30.8937V32.4383H27.8043C25.635 32.4419 23.5034 31.8717 21.6256 30.7855C19.7478 31.8717 17.6161 32.4419 15.4468 32.4383C13.2775 32.4419 11.1459 31.8717 9.2681 30.7855C7.3903 31.8717 5.25866 32.4419 3.08937 32.4383H0V29.349H3.08937Z" fill="#185196"/>
</g>
</svg>
