<svg width="35" height="35" viewBox="0 0 35 35" fill="none" xmlns="http://www.w3.org/2000/svg">
<g id="Group">
<path id="Vector" fill-rule="evenodd" clip-rule="evenodd" d="M30.6252 26.2502C31.0119 26.2502 31.3829 26.4038 31.6564 26.6773C31.9299 26.9508 32.0835 27.3218 32.0835 27.7085C32.0835 28.0953 31.9299 28.4662 31.6564 28.7397C31.3829 29.0132 31.0119 29.1669 30.6252 29.1669H2.91684C2.53006 29.1669 2.15913 29.0132 1.88564 28.7397C1.61215 28.4662 1.45851 28.0953 1.45851 27.7085C1.45851 27.3218 1.61215 26.9508 1.88564 26.6773C2.15913 26.4038 2.53006 26.2502 2.91684 26.2502H30.6252ZM17.5002 7.29187C22.2018 7.29187 26.1656 8.85958 28.9743 11.0675C31.732 13.2346 33.5418 16.1658 33.5418 18.9585C33.5418 20.1865 33.1656 21.2335 32.502 22.0794C31.856 22.9048 30.9941 23.4648 30.1162 23.8498C28.3866 24.6052 26.3289 24.7919 24.7918 24.7919H4.36642C3.98387 24.7917 3.6051 24.716 3.25181 24.5693C2.89852 24.4225 2.57765 24.2076 2.30754 23.9366C2.03744 23.6657 1.82342 23.3442 1.67773 22.9905C1.53204 22.6367 1.45755 22.2578 1.45851 21.8752V10.2085C1.45851 8.60291 2.75642 7.29187 4.37226 7.29187H17.5002ZM10.2085 10.2085H4.37517V14.5835H10.2085V10.2085ZM17.5002 10.2085H13.1252V14.5835H18.9585V10.2669C18.6372 10.2409 18.3153 10.2238 17.9931 10.2158L17.5002 10.2085ZM21.8752 10.7671V14.5835H28.512C28.0969 14.1424 27.6489 13.7334 27.1718 13.36C25.7689 12.2575 23.9781 11.3256 21.8752 10.7671Z" fill="#185196"/>
</g>
</svg>
