<svg width="35" height="35" viewBox="0 0 35 35" fill="none" xmlns="http://www.w3.org/2000/svg">
<g id="Group 2762">
<path id="Vector" d="M9.09615 7.4962C8.99541 7.39575 8.91547 7.27641 8.86093 7.14502C8.80639 7.01362 8.77832 6.87276 8.77832 6.73049C8.77832 6.58823 8.80639 6.44736 8.86093 6.31597C8.91547 6.18457 8.99541 6.06523 9.09615 5.96479L11.0638 3.99715C11.1642 3.89641 11.2836 3.81648 11.415 3.76194C11.5464 3.7074 11.6872 3.67932 11.8295 3.67932C11.9718 3.67932 12.1126 3.7074 12.244 3.76194C12.3754 3.81648 12.4948 3.89641 12.5952 3.99715C12.6959 4.0976 12.7759 4.21694 12.8304 4.34834C12.885 4.47973 12.913 4.6206 12.913 4.76286C12.913 4.90512 12.885 5.04599 12.8304 5.17738C12.7759 5.30878 12.6959 5.42812 12.5952 5.52857L10.6276 7.4962C10.5271 7.59695 10.4078 7.67688 10.2764 7.73142C10.145 7.78596 10.0041 7.81403 9.86186 7.81403C9.71959 7.81403 9.57873 7.78596 9.44733 7.73142C9.31594 7.67688 9.1966 7.59695 9.09615 7.4962ZM15.0516 7.4962C14.9509 7.39575 14.871 7.27641 14.8164 7.14502C14.7619 7.01362 14.7338 6.87276 14.7338 6.73049C14.7338 6.58823 14.7619 6.44736 14.8164 6.31597C14.871 6.18457 14.9509 6.06523 15.0516 5.96479L17.0193 3.99715C17.1197 3.89641 17.2391 3.81648 17.3705 3.76194C17.5019 3.7074 17.6427 3.67932 17.785 3.67932C17.9273 3.67932 18.0681 3.7074 18.1995 3.76194C18.3309 3.81648 18.4502 3.89641 18.5507 3.99715C18.6514 4.0976 18.7314 4.21694 18.7859 4.34834C18.8405 4.47973 18.8685 4.6206 18.8685 4.76286C18.8685 4.90512 18.8405 5.04599 18.7859 5.17738C18.7314 5.30878 18.6514 5.42812 18.5507 5.52857L16.5831 7.4962C16.4826 7.59695 16.3633 7.67688 16.2319 7.73142C16.1005 7.78596 15.9596 7.81403 15.8174 7.81403C15.6751 7.81403 15.5342 7.78596 15.4028 7.73142C15.2714 7.67688 15.1521 7.59695 15.0516 7.4962ZM27.6959 19.4845C27.5951 19.3841 27.5152 19.2648 27.4606 19.1334C27.4061 19.002 27.378 18.8611 27.378 18.7188C27.378 18.5766 27.4061 18.4357 27.4606 18.3043C27.5152 18.1729 27.5951 18.0536 27.6959 17.9531L29.6635 15.9855C29.7639 15.8847 29.8833 15.8048 30.0147 15.7503C30.1461 15.6957 30.2869 15.6677 30.4292 15.6677C30.5715 15.6677 30.7123 15.6957 30.8437 15.7503C30.9751 15.8048 31.0945 15.8847 31.1949 15.9855C31.2957 16.0859 31.3756 16.2053 31.4301 16.3367C31.4847 16.4681 31.5127 16.6089 31.5127 16.7512C31.5127 16.8935 31.4847 17.0343 31.4301 17.1657C31.3756 17.2971 31.2957 17.4165 31.1949 17.5169L29.2273 19.4845C29.1268 19.5853 29.0075 19.6652 28.8761 19.7198C28.7447 19.7743 28.6038 19.8024 28.4616 19.8024C28.3193 19.8024 28.1784 19.7743 28.047 19.7198C27.9157 19.6652 27.7963 19.5853 27.6959 19.4845ZM27.5381 25.5174C27.4373 25.4169 27.3574 25.2976 27.3029 25.1662C27.2483 25.0348 27.2202 24.8939 27.2202 24.7517C27.2202 24.6094 27.2483 24.4685 27.3029 24.3372C27.3574 24.2058 27.4373 24.0864 27.5381 23.986L29.5057 22.0183C29.6062 21.9176 29.7255 21.8377 29.8569 21.7831C29.9883 21.7286 30.1292 21.7005 30.2714 21.7005C30.4137 21.7005 30.5546 21.7286 30.6859 21.7831C30.8173 21.8377 30.9367 21.9176 31.0371 22.0183C31.1379 22.1188 31.2178 22.2381 31.2723 22.3695C31.3269 22.5009 31.355 22.6418 31.355 22.784C31.355 22.9263 31.3269 23.0672 31.2723 23.1986C31.2178 23.33 31.1379 23.4493 31.0371 23.5497L29.0695 25.5174C28.969 25.6181 28.8497 25.6981 28.7183 25.7526C28.5869 25.8071 28.4461 25.8352 28.3038 25.8352C28.1615 25.8352 28.0207 25.8071 27.8893 25.7526C27.7579 25.6981 27.6385 25.6181 27.5381 25.5174Z" fill="#185196"/>
<path id="Vector_2" d="M28.6729 7.56419C28.6729 7.56419 29.8083 21.4861 28.6729 32.3081C28.4873 34.0716 26.0061 34.5047 25.6472 32.766C23.6177 22.9309 19.2369 17.3095 19.2369 17.3095L28.6729 7.56419ZM27.4447 6.5216C27.4447 6.5216 13.5227 5.38618 2.70074 6.5216C0.937294 6.70722 0.504167 9.18842 2.24286 9.5473C12.0779 11.5768 17.6993 15.9576 17.6993 15.9576L27.4447 6.5216ZM12.0625 22.9371H1.24048C0.0215397 22.9371 -0.464181 24.5149 0.544386 25.1986L5.87494 28.8153L12.0625 22.9371ZM12.0625 22.9371V33.7591C12.0625 34.978 10.4847 35.4638 9.80093 34.4552L6.18432 29.1246L12.0625 22.9371Z" fill="#185196"/>
<path id="Vector_3" d="M26.6931 2.32992L7.03536 23.0117C6.48881 23.5868 6.18421 24.35 6.18457 25.1433V26.9594C6.18457 27.9834 7.01679 28.8156 8.04083 28.8156H9.85687C10.6489 28.8156 11.413 28.5125 11.9885 27.9649L32.6703 8.30708C33.6355 7.39132 34.279 6.18785 34.5049 4.87609L34.972 2.17214C35.1917 0.906791 34.0903 -0.191495 32.8281 0.0281624L30.1241 0.495321C28.8124 0.721166 27.6089 1.36467 26.6931 2.32992Z" fill="#185196"/>
<path id="Vector_4" d="M13.306 21.9692L5.30859 29.9852C5.30859 29.9852 6.03253 25.7777 13.306 21.9692Z" fill="#185196"/>
<path id="Vector_5" d="M13.306 21.9692L5.30859 29.9852C5.30859 29.9852 9.45424 29.3169 13.306 21.9692Z" fill="#185196"/>
<path id="Vector_6" d="M29.3877 2.73509L30.0962 2.66083C31.6276 2.54637 32.7939 4.01281 32.3361 5.47925" stroke="#185196" stroke-width="3" stroke-miterlimit="10" stroke-linecap="round"/>
</g>
</svg>
