<svg width="212" height="22" viewBox="0 0 212 22" fill="none" xmlns="http://www.w3.org/2000/svg">
<g id="Halkara Logistika">
<path d="M0 16.957V1.1011H2.37759V7.83984H13.8252V1.1011H16.2248V16.957H13.8252V10.2182H2.37759V16.957H0Z" fill="white"/>
<path d="M21.4772 16.957C20.9489 16.957 20.4646 16.8248 20.0243 16.5606C19.5987 16.2963 19.2538 15.9513 18.9896 15.5255C18.7401 15.0998 18.6153 14.6226 18.6153 14.0941V9.38138H29.2044V7.11311C29.2044 6.9663 29.153 6.84151 29.0503 6.73874C28.9476 6.62129 28.8228 6.56256 28.6761 6.56256H18.6153V4.18418H28.7421C29.2705 4.18418 29.7474 4.31632 30.1731 4.58058C30.6134 4.83016 30.9583 5.17518 31.2078 5.61562C31.4719 6.05606 31.604 6.5332 31.604 7.04705V16.957H21.4772ZM21.5433 14.5786H29.2044V11.6056H20.9929V14.028C20.9929 14.1748 21.0443 14.307 21.147 14.4244C21.2644 14.5272 21.3965 14.5786 21.5433 14.5786Z" fill="white"/>
<path d="M36.4189 16.957C35.8905 16.957 35.4135 16.8248 34.9879 16.5606C34.5623 16.2963 34.2174 15.9513 33.9532 15.5255C33.689 15.0998 33.557 14.6226 33.557 14.0941V0H35.9346V14.028C35.9346 14.1748 35.9859 14.307 36.0887 14.4244C36.2061 14.5272 36.3382 14.5786 36.4849 14.5786H38.7965V16.957H36.4189Z" fill="white"/>
<path d="M40.5451 16.957V0H42.9227V9.38138H45.7846L50.5618 4.18418H53.2916V4.62463L47.898 10.5706L53.2916 16.5165V16.957H50.5618L45.7846 11.7598H42.9227V16.957H40.5451Z" fill="white"/>
<path d="M57.5951 16.957C57.0668 16.957 56.5825 16.8248 56.1422 16.5606C55.7166 16.2963 55.3717 15.9513 55.1075 15.5255C54.858 15.0998 54.7332 14.6226 54.7332 14.0941V9.38138H65.3223V7.11311C65.3223 6.9663 65.2709 6.84151 65.1682 6.73874C65.0655 6.62129 64.9407 6.56256 64.794 6.56256H54.7332V4.18418H64.86C65.3884 4.18418 65.8653 4.31632 66.291 4.58058C66.7312 4.83016 67.0761 5.17518 67.3256 5.61562C67.5898 6.05606 67.7219 6.5332 67.7219 7.04705V16.957H57.5951ZM57.6612 14.5786H65.3223V11.6056H57.1108V14.028C57.1108 14.1748 57.1622 14.307 57.2649 14.4244C57.3823 14.5272 57.5144 14.5786 57.6612 14.5786Z" fill="white"/>
<path d="M69.7393 16.957V7.04705C69.7393 6.51852 69.8714 6.04138 70.1356 5.61562C70.3998 5.18986 70.7447 4.84485 71.1703 4.58058C71.6106 4.31632 72.0876 4.18418 72.6013 4.18418H79.734V6.56256H72.6673C72.5205 6.56256 72.3885 6.62129 72.271 6.73874C72.1683 6.84151 72.1169 6.9663 72.1169 7.11311V16.957H69.7393Z" fill="white"/>
<path d="M84.1246 16.957C83.5962 16.957 83.1119 16.8248 82.6716 16.5606C82.246 16.2963 81.9011 15.9513 81.6369 15.5255C81.3874 15.0998 81.2627 14.6226 81.2627 14.0941V9.38138H91.8518V7.11311C91.8518 6.9663 91.8004 6.84151 91.6977 6.73874C91.5949 6.62129 91.4702 6.56256 91.3234 6.56256H81.2627V4.18418H91.3894C91.9178 4.18418 92.3948 4.31632 92.8204 4.58058C93.2607 4.83016 93.6056 5.17518 93.8551 5.61562C94.1193 6.05606 94.2514 6.5332 94.2514 7.04705V16.957H84.1246ZM84.1906 14.5786H91.8518V11.6056H83.6403V14.028C83.6403 14.1748 83.6916 14.307 83.7944 14.4244C83.9118 14.5272 84.0439 14.5786 84.1906 14.5786Z" fill="white"/>
<path d="M103.043 16.957V1.07908H105.421V14.5786H118.894V16.957H103.043Z" fill="white"/>
<path d="M122.929 16.957C122.401 16.957 121.924 16.8248 121.498 16.5606C121.073 16.2963 120.728 15.9513 120.464 15.5255C120.199 15.0998 120.067 14.6226 120.067 14.0941V7.04705C120.067 6.51852 120.199 6.04138 120.464 5.61562C120.728 5.18986 121.073 4.84485 121.498 4.58058C121.924 4.31632 122.401 4.18418 122.929 4.18418H130.194C130.723 4.18418 131.2 4.31632 131.625 4.58058C132.065 4.83016 132.41 5.17518 132.66 5.61562C132.924 6.05606 133.056 6.5332 133.056 7.04705V14.0941C133.056 14.6226 132.924 15.0998 132.66 15.5255C132.41 15.9513 132.065 16.2963 131.625 16.5606C131.2 16.8248 130.723 16.957 130.194 16.957H122.929ZM122.995 14.5786H130.128C130.275 14.5786 130.4 14.5272 130.502 14.4244C130.605 14.307 130.656 14.1748 130.656 14.028V7.11311C130.656 6.9663 130.605 6.84151 130.502 6.73874C130.4 6.62129 130.275 6.56256 130.128 6.56256H122.995C122.849 6.56256 122.716 6.62129 122.599 6.73874C122.496 6.84151 122.445 6.9663 122.445 7.11311V14.028C122.445 14.1748 122.496 14.307 122.599 14.4244C122.716 14.5272 122.849 14.5786 122.995 14.5786Z" fill="white"/>
<path d="M137.335 22V19.5996H145.151C145.297 19.5996 145.422 19.5409 145.525 19.4234C145.642 19.3207 145.701 19.1959 145.701 19.0491V16.957H137.952C137.438 16.957 136.961 16.8322 136.521 16.5826C136.081 16.3183 135.728 15.966 135.464 15.5255C135.215 15.0851 135.09 14.6079 135.09 14.0941V7.04705C135.09 6.51852 135.222 6.04138 135.486 5.61562C135.75 5.18986 136.095 4.84485 136.521 4.58058C136.961 4.31632 137.438 4.18418 137.952 4.18418H145.217C145.745 4.18418 146.222 4.31632 146.648 4.58058C147.088 4.84485 147.433 5.18986 147.682 5.61562C147.946 6.04138 148.079 6.51852 148.079 7.04705V19.1371C148.079 19.6657 147.946 20.1428 147.682 20.5686C147.433 21.009 147.088 21.354 146.648 21.6036C146.222 21.8679 145.745 22 145.217 22H137.335ZM138.018 14.5786H145.151C145.297 14.5786 145.422 14.5272 145.525 14.4244C145.642 14.307 145.701 14.1748 145.701 14.028V7.11311C145.701 6.9663 145.642 6.84151 145.525 6.73874C145.422 6.62129 145.297 6.56256 145.151 6.56256H138.018C137.871 6.56256 137.739 6.62129 137.622 6.73874C137.519 6.84151 137.467 6.9663 137.467 7.11311V14.028C137.467 14.1748 137.519 14.307 137.622 14.4244C137.739 14.5272 137.871 14.5786 138.018 14.5786Z" fill="white"/>
<path d="M150.36 16.957V4.18418H152.737V16.957H150.36ZM150.36 2.37838V0H152.737V2.37838H150.36Z" fill="white"/>
<path d="M158.207 16.957C157.679 16.957 157.202 16.8248 156.776 16.5606C156.351 16.2963 156.006 15.9513 155.742 15.5255C155.477 15.0998 155.345 14.6226 155.345 14.0941V13.7638H157.723V14.028C157.723 14.1748 157.774 14.307 157.877 14.4244C157.994 14.5272 158.126 14.5786 158.273 14.5786H165.406C165.553 14.5786 165.678 14.5272 165.78 14.4244C165.883 14.307 165.934 14.1748 165.934 14.028V12.3103C165.934 12.1635 165.883 12.0387 165.78 11.9359C165.678 11.8185 165.553 11.7598 165.406 11.7598H158.207C157.679 11.7598 157.202 11.635 156.776 11.3854C156.351 11.1211 156.006 10.7761 155.742 10.3504C155.477 9.90991 155.345 9.42543 155.345 8.8969V7.04705C155.345 6.51852 155.477 6.04138 155.742 5.61562C156.006 5.18986 156.351 4.84485 156.776 4.58058C157.202 4.31632 157.679 4.18418 158.207 4.18418H165.472C166 4.18418 166.477 4.31632 166.903 4.58058C167.343 4.84485 167.688 5.18986 167.938 5.61562C168.202 6.04138 168.334 6.51852 168.334 7.04705V7.37738H165.934V7.11311C165.934 6.9663 165.883 6.84151 165.78 6.73874C165.678 6.62129 165.553 6.56256 165.406 6.56256H158.273C158.126 6.56256 157.994 6.62129 157.877 6.73874C157.774 6.84151 157.723 6.9663 157.723 7.11311V8.83083C157.723 8.97764 157.774 9.10978 157.877 9.22723C157.994 9.33 158.126 9.38138 158.273 9.38138H165.472C166 9.38138 166.477 9.51351 166.903 9.77778C167.343 10.0274 167.688 10.3724 167.938 10.8128C168.202 11.2386 168.334 11.7157 168.334 12.2442V14.0941C168.334 14.6226 168.202 15.0998 167.938 15.5255C167.688 15.9513 167.343 16.2963 166.903 16.5606C166.477 16.8248 166 16.957 165.472 16.957H158.207Z" fill="white"/>
<path d="M173.409 16.957C172.881 16.957 172.397 16.8248 171.956 16.5606C171.531 16.2963 171.186 15.9513 170.922 15.5255C170.672 15.0998 170.547 14.6226 170.547 14.0941V0.154155H172.925V4.18418H178.165V6.56256H172.925V14.028C172.925 14.1748 172.976 14.307 173.079 14.4244C173.197 14.5272 173.329 14.5786 173.475 14.5786H178.165V16.957H173.409Z" fill="white"/>
<path d="M179.942 16.957V4.18418H182.32V16.957H179.942ZM179.942 2.37838V0H182.32V2.37838H179.942Z" fill="white"/>
<path d="M184.823 16.957V0H187.201V9.38138H190.063L194.84 4.18418H197.57V4.62463L192.176 10.5706L197.57 16.5165V16.957H194.84L190.063 11.7598H187.201V16.957H184.823Z" fill="white"/>
<path d="M201.873 16.957C201.345 16.957 200.861 16.8248 200.42 16.5606C199.995 16.2963 199.65 15.9513 199.386 15.5255C199.136 15.0998 199.011 14.6226 199.011 14.0941V9.38138H209.6V7.11311C209.6 6.9663 209.549 6.84151 209.446 6.73874C209.344 6.62129 209.219 6.56256 209.072 6.56256H199.011V4.18418H209.138C209.666 4.18418 210.143 4.31632 210.569 4.58058C211.009 4.83016 211.354 5.17518 211.604 5.61562C211.868 6.05606 212 6.5332 212 7.04705V16.957H201.873ZM201.939 14.5786H209.6V11.6056H201.389V14.028C201.389 14.1748 201.44 14.307 201.543 14.4244C201.66 14.5272 201.793 14.5786 201.939 14.5786Z" fill="white"/>
</g>
</svg>
