<svg width="32" height="32" viewBox="0 0 32 32" fill="none" xmlns="http://www.w3.org/2000/svg">
<g id="heroicons-solid:user-group">
<path id="Vector" d="M20.6451 9.80825C20.6451 11.0402 20.1557 12.2217 19.2846 13.0929C18.4134 13.964 17.2319 14.4534 15.9999 14.4534C14.768 14.4534 13.5864 13.964 12.7153 13.0929C11.8442 12.2217 11.3548 11.0402 11.3548 9.80825C11.3548 8.57627 11.8442 7.39476 12.7153 6.52362C13.5864 5.65249 14.768 5.16309 15.9999 5.16309C17.2319 5.16309 18.4134 5.65249 19.2846 6.52362C20.1557 7.39476 20.6451 8.57627 20.6451 9.80825ZM28.387 12.905C28.387 13.7263 28.0608 14.514 27.48 15.0948C26.8993 15.6755 26.1116 16.0018 25.2903 16.0018C24.4689 16.0018 23.6813 15.6755 23.1005 15.0948C22.5198 14.514 22.1935 13.7263 22.1935 12.905C22.1935 12.0837 22.5198 11.296 23.1005 10.7153C23.6813 10.1345 24.4689 9.80825 25.2903 9.80825C26.1116 9.80825 26.8993 10.1345 27.48 10.7153C28.0608 11.296 28.387 12.0837 28.387 12.905ZM22.1935 23.7437C22.1935 22.1011 21.541 20.5257 20.3794 19.3642C19.2179 18.2027 17.6426 17.5502 15.9999 17.5502C14.3573 17.5502 12.782 18.2027 11.6204 19.3642C10.4589 20.5257 9.80639 22.1011 9.80639 23.7437V28.3889H22.1935V23.7437ZM9.80639 12.905C9.80639 13.7263 9.48012 14.514 8.89936 15.0948C8.31861 15.6755 7.53093 16.0018 6.70961 16.0018C5.8883 16.0018 5.10062 15.6755 4.51986 15.0948C3.93911 14.514 3.61284 13.7263 3.61284 12.905C3.61284 12.0837 3.93911 11.296 4.51986 10.7153C5.10062 10.1345 5.8883 9.80825 6.70961 9.80825C7.53093 9.80825 8.31861 10.1345 8.89936 10.7153C9.48012 11.296 9.80639 12.0837 9.80639 12.905ZM25.2903 28.3889V23.7437C25.2925 22.1695 24.8928 20.6207 24.129 19.2441C24.8154 19.0684 25.533 19.0519 26.2268 19.1957C26.9207 19.3395 27.5725 19.6399 28.1326 20.0739C28.6927 20.508 29.1463 21.0642 29.4587 21.7002C29.7711 22.3362 29.9342 23.0351 29.9354 23.7437V28.3889H25.2903ZM7.8709 19.2441C7.10716 20.6207 6.70745 22.1695 6.70961 23.7437V28.3889H2.06445V23.7437C2.06416 23.0346 2.2262 22.3349 2.53818 21.6981C2.85015 21.0613 3.30377 20.5044 3.86427 20.0701C4.42477 19.6357 5.07728 19.3354 5.77177 19.1923C6.46627 19.0491 7.18432 19.0668 7.8709 19.2441Z" fill="white"/>
</g>
</svg>
