<svg width="32" height="32" viewBox="0 0 32 32" fill="none" xmlns="http://www.w3.org/2000/svg">
<g id="mingcute:building-6-fill">
<g id="Group">
<path id="Vector" fill-rule="evenodd" clip-rule="evenodd" d="M22.4515 25.0317V15.0704L25.0322 15.7155V25.0317H22.4515ZM22.4515 5.31813V12.411L26.147 13.3349C26.5657 13.4396 26.9373 13.6813 27.2029 14.0214C27.4685 14.3616 27.6128 14.7808 27.6128 15.2123V25.0317C27.955 25.0317 28.2832 25.1676 28.5252 25.4096C28.7672 25.6516 28.9031 25.9798 28.9031 26.322C28.9031 26.6642 28.7672 26.9924 28.5252 27.2344C28.2832 27.4764 27.955 27.6123 27.6128 27.6123H4.387C4.04479 27.6123 3.71659 27.4764 3.47461 27.2344C3.23262 26.9924 3.09668 26.6642 3.09668 26.322C3.09668 25.9798 3.23262 25.6516 3.47461 25.4096C3.71659 25.1676 4.04479 25.0317 4.387 25.0317V15.1091C4.38677 14.7492 4.48687 14.3965 4.67605 14.0903C4.86524 13.7842 5.13601 13.5369 5.45797 13.3762L9.54829 11.331V8.70522C9.54813 8.31116 9.66825 7.92644 9.8926 7.60249C10.1169 7.27853 10.4348 7.03077 10.8038 6.89232L19.836 3.50522C20.1289 3.39531 20.4441 3.35804 20.7546 3.39659C21.065 3.43515 21.3615 3.54838 21.6186 3.7266C21.8757 3.90482 22.0858 4.14271 22.2309 4.41989C22.3759 4.69707 22.4516 5.00528 22.4515 5.31813ZM9.54829 14.2162V25.0317H6.96765V15.5065L9.54829 14.2162Z" fill="white"/>
</g>
</g>
</svg>
