<svg width="32" height="32" viewBox="0 0 32 32" fill="none" xmlns="http://www.w3.org/2000/svg">
<g id="solar:buildings-bold">
<path id="Vector" fill-rule="evenodd" clip-rule="evenodd" d="M19.8708 3.09766H22.4515C24.885 3.09766 26.1005 3.09766 26.8566 3.85379C27.6128 4.60991 27.6128 5.8254 27.6128 8.25895V27.9364H28.9031C29.1598 27.9364 29.4059 28.0383 29.5874 28.2198C29.7689 28.4013 29.8708 28.6474 29.8708 28.9041C29.8708 29.1608 29.7689 29.4069 29.5874 29.5884C29.4059 29.7699 29.1598 29.8718 28.9031 29.8718H3.09665C2.83999 29.8718 2.59384 29.7699 2.41235 29.5884C2.23086 29.4069 2.12891 29.1608 2.12891 28.9041C2.12891 28.6474 2.23086 28.4013 2.41235 28.2198C2.59384 28.0383 2.83999 27.9364 3.09665 27.9364H4.38697V12.1299C4.38697 9.69637 4.38697 8.48088 5.1431 7.72475C5.89923 6.96862 7.11471 6.96862 9.54826 6.96862H14.7096C17.1431 6.96862 18.3586 6.96862 19.1147 7.72475C19.8708 8.48088 19.8708 9.69637 19.8708 12.1299V27.9364H21.8063V12.0138C21.8063 10.8977 21.8063 9.87314 21.6941 9.04088C21.5715 8.12346 21.2812 7.15314 20.4837 6.35701C19.6863 5.5583 18.716 5.26798 17.7999 5.14411C16.9779 5.03443 15.9702 5.03314 14.8721 5.03314C14.9805 4.53379 15.1625 4.15572 15.4657 3.85379C16.2218 3.09766 17.4373 3.09766 19.8708 3.09766ZM7.2902 10.8396C7.2902 10.5829 7.39215 10.3368 7.57364 10.1553C7.75513 9.97381 8.00128 9.87185 8.25794 9.87185H15.9999C16.2565 9.87185 16.5027 9.97381 16.6842 10.1553C16.8657 10.3368 16.9676 10.5829 16.9676 10.8396C16.9676 11.0963 16.8657 11.3424 16.6842 11.5239C16.5027 11.7054 16.2565 11.8073 15.9999 11.8073H8.25794C8.00128 11.8073 7.75513 11.7054 7.57364 11.5239C7.39215 11.3424 7.2902 11.0963 7.2902 10.8396ZM7.2902 14.7106C7.2902 14.4539 7.39215 14.2077 7.57364 14.0263C7.75513 13.8448 8.00128 13.7428 8.25794 13.7428H15.9999C16.2565 13.7428 16.5027 13.8448 16.6842 14.0263C16.8657 14.2077 16.9676 14.4539 16.9676 14.7106C16.9676 14.9672 16.8657 15.2134 16.6842 15.3949C16.5027 15.5763 16.2565 15.6783 15.9999 15.6783H8.25794C8.00128 15.6783 7.75513 15.5763 7.57364 15.3949C7.39215 15.2134 7.2902 14.9672 7.2902 14.7106ZM7.2902 18.5815C7.2902 18.3249 7.39215 18.0787 7.57364 17.8972C7.75513 17.7157 8.00128 17.6138 8.25794 17.6138H15.9999C16.2565 17.6138 16.5027 17.7157 16.6842 17.8972C16.8657 18.0787 16.9676 18.3249 16.9676 18.5815C16.9676 18.8382 16.8657 19.0843 16.6842 19.2658C16.5027 19.4473 16.2565 19.5493 15.9999 19.5493H8.25794C8.00128 19.5493 7.75513 19.4473 7.57364 19.2658C7.39215 19.0843 7.2902 18.8382 7.2902 18.5815ZM12.1289 24.0654C12.3856 24.0654 12.6317 24.1674 12.8132 24.3488C12.9947 24.5303 13.0966 24.7765 13.0966 25.0331V27.9364H11.1612V25.0331C11.1612 24.7765 11.2631 24.5303 11.4446 24.3488C11.6261 24.1674 11.8722 24.0654 12.1289 24.0654Z" fill="white"/>
</g>
</svg>
