<svg width="35" height="35" viewBox="0 0 35 35" fill="none" xmlns="http://www.w3.org/2000/svg">
<path id="Vector" d="M12.3262 4.48823C11.7104 6.03099 11.249 7.63096 10.9488 9.2647H21.9924C21.6915 7.63088 21.2295 6.0309 20.6129 4.48823C19.9932 2.97912 19.2788 1.82412 18.5377 1.06441C17.8006 0.306764 17.1027 0 16.4706 0C15.8385 0 15.1406 0.306764 14.4035 1.06441C13.6624 1.82618 12.9479 2.97912 12.3262 4.48823ZM12.1285 0.578529C11.4821 1.45559 10.9138 2.51588 10.4238 3.70382C9.76501 5.3097 9.22971 7.19147 8.85501 9.2647H1.6553C2.68369 7.15588 4.14968 5.29044 5.9556 3.79266C7.76152 2.29489 9.86591 1.19917 12.1285 0.578529ZM20.8147 0.578529C21.4591 1.45559 22.0294 2.51588 22.5174 3.70382C23.1762 5.3097 23.7115 7.19147 24.0862 9.2647H31.2859C30.2575 7.15588 28.7915 5.29044 26.9856 3.79266C25.1797 2.29489 23.0773 1.19917 20.8147 0.578529ZM32.1218 11.3235H24.3971C24.4753 11.9618 24.5412 12.6165 24.5906 13.2835C25.2311 12.737 26.0541 12.4519 26.8955 12.4851C27.7368 12.5183 28.5348 12.8673 29.1303 13.4626C30.0032 14.3541 31.36 15.4865 32.9371 16.0753C32.9004 14.4599 32.6257 12.8588 32.1218 11.3235ZM22.3218 11.3235C22.4741 12.4888 22.575 13.7118 22.6203 14.98C21.6527 15.6594 20.4997 16.2441 19.2685 16.4171C17.8685 16.6147 16.4685 17.7944 16.4706 19.5588V21.6176H10.6194C10.4004 19.9107 10.2918 18.1915 10.2941 16.4706C10.2941 14.6691 10.4094 12.9397 10.6194 11.3235H22.3218ZM10.9488 23.6765H16.4706V24.7059C16.4706 27.6376 17.4053 29.9497 18.6818 31.7244C18.6347 31.7761 18.5867 31.8269 18.5377 31.8768C17.8006 32.6344 17.1027 32.9412 16.4706 32.9412C15.8385 32.9412 15.1406 32.6344 14.4035 31.8768C13.6624 31.115 12.9479 29.962 12.3262 28.4529C11.7104 26.9102 11.249 25.3102 10.9488 23.6765ZM12.1285 32.3626C9.86591 31.742 7.76152 30.6463 5.9556 29.1485C4.14968 27.6507 2.68369 25.7853 1.6553 23.6765H8.85501C9.22971 25.7497 9.76295 27.6335 10.4238 29.2353C10.9118 30.4253 11.4821 31.4856 12.1285 32.3626ZM0.819422 21.6176H8.54412C8.3365 19.9098 8.23337 18.191 8.2353 16.4706C8.2353 14.6876 8.34236 12.9603 8.54412 11.3235H0.819422C0.274605 12.9848 -0.00200057 14.7223 1.08918e-05 16.4706C1.08918e-05 18.2679 0.288246 19.9973 0.819422 21.6176ZM33.9726 18.4573C31.1521 18.06 28.8544 16.1226 27.6603 14.9038C27.4205 14.6706 27.0992 14.5402 26.7647 14.5402C26.4302 14.5402 26.1089 14.6706 25.8691 14.9038C24.675 16.1226 22.3794 18.06 19.5568 18.4573C18.9926 18.5356 18.5294 18.9906 18.5294 19.5588V24.7059C18.5294 31.8459 25.0806 34.4379 26.4971 34.9156C26.6705 34.9752 26.8589 34.9752 27.0324 34.9156C28.4488 34.4379 35 31.8479 35 24.7059V19.5588C35 18.9906 34.5368 18.5356 33.9726 18.4573Z" fill="#185196"/>
</svg>
