<svg width="35" height="26" viewBox="0 0 35 26" fill="none" xmlns="http://www.w3.org/2000/svg">
<path id="Vector" d="M3.18182 0H25.4545V6.36364H30.2273L35 12.7273V20.6818H31.8182C31.8182 21.9476 31.3153 23.1616 30.4203 24.0566C29.5252 24.9517 28.3113 25.4545 27.0455 25.4545C25.7796 25.4545 24.5657 24.9517 23.6706 24.0566C22.7756 23.1616 22.2727 21.9476 22.2727 20.6818H12.7273C12.7273 21.9476 12.2244 23.1616 11.3294 24.0566C10.4343 24.9517 9.22035 25.4545 7.95455 25.4545C6.68874 25.4545 5.47478 24.9517 4.57972 24.0566C3.68466 23.1616 3.18182 21.9476 3.18182 20.6818H0V3.18182C0 2.33795 0.335226 1.52864 0.931933 0.931933C1.52864 0.335226 2.33795 0 3.18182 0ZM25.4545 8.75V12.7273H32.5659L29.4318 8.75H25.4545ZM7.95455 18.2955C7.32164 18.2955 6.71466 18.5469 6.26713 18.9944C5.8196 19.4419 5.56818 20.0489 5.56818 20.6818C5.56818 21.3147 5.8196 21.9217 6.26713 22.3692C6.71466 22.8168 7.32164 23.0682 7.95455 23.0682C8.58745 23.0682 9.19443 22.8168 9.64196 22.3692C10.0895 21.9217 10.3409 21.3147 10.3409 20.6818C10.3409 20.0489 10.0895 19.4419 9.64196 18.9944C9.19443 18.5469 8.58745 18.2955 7.95455 18.2955ZM27.0455 18.2955C26.4125 18.2955 25.8056 18.5469 25.358 18.9944C24.9105 19.4419 24.6591 20.0489 24.6591 20.6818C24.6591 21.3147 24.9105 21.9217 25.358 22.3692C25.8056 22.8168 26.4125 23.0682 27.0455 23.0682C27.6784 23.0682 28.2853 22.8168 28.7329 22.3692C29.1804 21.9217 29.4318 21.3147 29.4318 20.6818C29.4318 20.0489 29.1804 19.4419 28.7329 18.9944C28.2853 18.5469 27.6784 18.2955 27.0455 18.2955ZM11.1364 15.9091L20.6818 6.36364L18.4386 4.10455L11.1364 11.4068L7.81136 8.08182L5.56818 10.3409L11.1364 15.9091Z" fill="#185196"/>
</svg>
